# xmcd CD database file
#
# Track frame offsets:
#	150
#	12745
#	43627
#	54522
#	85585
#	98255
#	114800
#	135867
#	152220
#	167490
#	187182
#
# Disc length: 2673 seconds
#
# Revision: 7
# Processed by: cddbd v1.5.2PL0 Copyright (c) Steve Scherf et al.
# Submitted via: CDex 1.51
#
DISCID=7a0a6f0b
DTITLE=Fat Possum Records - Not The Same Old Blues Crap
DYEAR=1997
DGENRE=Blues
TTITLE0=T-Model Ford - I'm Insane
TTITLE1=Junior Kimbrough - Meet Me In The City
TTITLE2=20 Miles - Come Right In
TTITLE3=R.L. Burnside - Snake Drive
TTITLE4=the Neckbones - Crack Whore Blues
TTITLE5=Junior Kimbrough - Lonesome Road
TTITLE6=Jelly Roll Kings - Have Mercy Baby
TTITLE7=R.L. Burnside - Come On In
TTITLE8=Elmo Williams - Been Here And Gone
TTITLE9=Robert Cage - Little Eddie Blues
TTITLE10=Hasil Adkins - Your Memories
EXTD=YEAR: 1997
EXTT0=
EXTT1=
EXTT2=
EXTT3=
EXTT4=
EXTT5=
EXTT6=
EXTT7=
EXTT8=
EXTT9=
EXTT10=
PLAYORDER=
